<svg id="Ebene_1" data-name="Ebene 1" xmlns="http://www.w3.org/2000/svg" xmlns:xlink="http://www.w3.org/1999/xlink" viewBox="0 0 103.19 50"><defs><style>.cls-1{fill:none;}.cls-2{clip-path:url(#clip-path);}.cls-3{fill:#fff;}</style><clipPath id="clip-path"><rect class="cls-1" x="24.08" y="11.67" width="55.03" height="26.67"/></clipPath></defs><title>logo</title><g id="locator_logo_white"><g class="cls-2"><g class="cls-2"><path class="cls-3" d="M27,27.6a46.08,46.08,0,0,1,2.24-8.28c0.18-.52.36-1,0.52-1.52,0.53-1.63,1.93-4,3.24-4a0.6,0.6,0,0,1,.2,0c0.35,0.12.51,0.68,0.63,1.53a7.85,7.85,0,0,1-.65,3.27L33,19.12c0,0.14-1.19,3.47-6,8.49m7.85,8.65a0.26,0.26,0,0,1-.12,0h0a1.88,1.88,0,0,1-.8-1.53,8.66,8.66,0,0,1,.43-3.8c0.08-.26.18-0.52,0.3-0.79L34.7,30h0a3.75,3.75,0,0,0,.43-1.48h0a0.64,0.64,0,0,0,.53-0.23h0a3,3,0,0,1,1.9-1.41,0.26,0.26,0,0,1,.12,0h0A1.25,1.25,0,0,1,38.11,28h0c0,0.14,0,.28.06,0.43a8.66,8.66,0,0,1-.43,3.8c-0.79,2.42-2,4.05-2.9,4.05m15.21,0a0.59,0.59,0,0,1-.2,0,1.82,1.82,0,0,1-.77-1.48,8.39,8.39,0,0,1,.42-3.68c0.79-2.42,2.24-3.92,3.12-3.92a0.61,0.61,0,0,1,.19,0c0.74,0.26.93,2.39,0,5.16-0.77,2.34-1.89,3.92-2.79,3.92m15.13,0a0.57,0.57,0,0,1-.18,0,1.72,1.72,0,0,1-.73-1.4,7.9,7.9,0,0,1,.4-3.47,9.35,9.35,0,0,1,.5-1.22,0.79,0.79,0,0,0,.32.07,0.42,0.42,0,0,0,.35-0.15,0.28,0.28,0,0,0,.06-0.23,2.05,2.05,0,0,1,1.72-2.17,0.59,0.59,0,0,1,.19,0c0.32,0.11.39,0.61,0.39,1.38a10.85,10.85,0,0,1-.39,3.49c-0.72,2.21-1.77,3.7-2.61,3.7m13.63-9a3.05,3.05,0,0,0-2.27-1H76.46a3.06,3.06,0,0,0-2.36,1.16A2.22,2.22,0,0,0,73.91,27,2.52,2.52,0,0,0,72,25.83h-0.1a4.38,4.38,0,0,0-2.67,1h0a3.13,3.13,0,0,0-1.19-.92,2.38,2.38,0,0,0-.78-0.13,4,4,0,0,0-2.84,1.58,1,1,0,0,0-.22.74h0a0.69,0.69,0,0,0-.55.38,10.82,10.82,0,0,0-1.06,2.32,9.8,9.8,0,0,0-.47,4.39c0,0.12,0,.24.07,0.36a5.3,5.3,0,0,1-2.1.61A0.82,0.82,0,0,1,59.51,36c-0.35-.3-0.46-1.56.38-4.11v0c0.91-2.64,1.89-5.66,2.9-9a31.46,31.46,0,0,0,6.29.64,19.71,19.71,0,0,0,8.65-1.72,1,1,0,0,0,.5-0.57,1,1,0,0,0,0-.77,1,1,0,0,0-.89-0.58,1,1,0,0,0-.42.1,17.79,17.79,0,0,1-7.79,1.52,30.8,30.8,0,0,1-5.73-.55L64,18.87c0.57-2,.92-3.22.92-3.22a0.84,0.84,0,0,0-.35-0.81,2.39,2.39,0,0,0-.85-0.48,1,1,0,0,0-.28,0,1,1,0,0,0-1,.76s-0.4,1.44-1.07,3.72c-0.13.45-.28,1-0.44,1.6a64.15,64.15,0,0,0-13.25-1.63c-7.27,0-9.63,2-9.73,2.13a1,1,0,0,0-.1,1.43,1,1,0,0,0,.74.35,0.94,0.94,0,0,0,.63-0.25,6.07,6.07,0,0,1,1.85-.83,22.38,22.38,0,0,1,6.59-.82,62.15,62.15,0,0,1,12.75,1.57L60.28,23c-0.76,3-1.63,6.34-2.74,9.48-1,2.88-1.88,3.66-2.19,3.66a0.47,0.47,0,0,1-.29-0.23,3.58,3.58,0,0,1-.55-2.36c0.07-.19.14-0.38,0.2-0.56,0.11-.35.21-0.7,0.3-1h0c0.49-1.68,1.21-4.38,1.42-5.17v0a1.06,1.06,0,0,0-.09-0.79,1,1,0,0,0-.61-0.5,1,1,0,0,0-.28,0,1,1,0,0,0-1,.76l0,0.14a2.71,2.71,0,0,0-1.33-1,2.49,2.49,0,0,0-.82-0.14c-1.92,0-4,2.18-5,5.29-0.07.2-.13,0.41-0.19,0.66l0,0a1,1,0,0,0-.51-0.15,1,1,0,0,0-.87.51,1,1,0,0,0-.11.27v0c-0.06.22-.11,0.39-0.16,0.55-0.8,2.43-1.89,4-2.8,4a0.58,0.58,0,0,1-.2,0,1.85,1.85,0,0,1-.79-1.52A8.56,8.56,0,0,1,42,31c0.81-2.47,2.29-4,3.19-4a0.51,0.51,0,0,1,.37.53c0,0.18.12,0.71,0.13,0.71a1,1,0,0,0,.94.67,1,1,0,0,0,1-1s0,0,0,0v0a3.09,3.09,0,0,0-2-2.75,2.55,2.55,0,0,0-.84-0.14c-1.68,0-3.43,1.57-4.59,4.1a7.64,7.64,0,0,0-.08-0.92A3.66,3.66,0,0,0,38,24.89a2.5,2.5,0,0,0-.83-0.14,3.75,3.75,0,0,0-2.35,1,0.73,0.73,0,0,1-.37.13,0.35,0.35,0,0,1-.26-0.11A0.28,0.28,0,0,0,34,25.64a0.38,0.38,0,0,0-.28.15,2.83,2.83,0,0,0-.47,1.78A11.74,11.74,0,0,0,32,30.22,10.69,10.69,0,0,0,31.5,35c0,0.15,0,.29.08,0.44l-0.08,0a5.43,5.43,0,0,1-2.31.64,2.46,2.46,0,0,1-.95-0.17,2.82,2.82,0,0,1-1.48-2,9.45,9.45,0,0,1-.18-3.11c6.23-5.45,8-10.17,8.33-11.05A10.7,10.7,0,0,0,35.44,15a3.66,3.66,0,0,0-2.16-3.19,2.61,2.61,0,0,0-.86-0.14c-2,0-4.07,2.2-5.14,5.46a68,68,0,0,0-2.62,12.65l-0.2.15a1.06,1.06,0,0,0-.16,1.46c0,0.06.11,0.06,0.26,0a10.33,10.33,0,0,0,.28,3.16,4.79,4.79,0,0,0,2.67,3.33,4.38,4.38,0,0,0,1.69.32,7.31,7.31,0,0,0,3.25-.87,2.74,2.74,0,0,0,1.22.86,2.58,2.58,0,0,0,.85.14c1.67,0,3.49-1.64,4.65-4.18a7.76,7.76,0,0,0,.08.89,3.62,3.62,0,0,0,2.13,3.15,2.56,2.56,0,0,0,.84.14c1.64,0,3.37-1.52,4.53-4,0,0.24,0,.47.07,0.69a3.54,3.54,0,0,0,2.09,3.09,2.51,2.51,0,0,0,.82.14,4.34,4.34,0,0,0,3.16-1.85,3.15,3.15,0,0,0,2.49,1.79h0a2.91,2.91,0,0,0,2.23-1.36,2.52,2.52,0,0,0,.58.73,2.74,2.74,0,0,0,1.85.63,7.19,7.19,0,0,0,3-.82,2.5,2.5,0,0,0,1,.69,2.38,2.38,0,0,0,.78.13c1.81,0,3.75-2.06,4.72-5A9.81,9.81,0,0,0,70,28.82c0-.15,0-0.29-0.09-0.45V28.3l0,0a2.25,2.25,0,0,1,1.25-.39A2.32,2.32,0,0,1,72,28c0.24,0.08.43,0.47-.4,4.21a34.66,34.66,0,0,1-1.47,4.5,1.1,1.1,0,0,0,.49,1.42h0a0.66,0.66,0,0,0,.2.06H71a1.15,1.15,0,0,0,1-.69c0.26-.69.71-2,1.13-3.48v0A22.75,22.75,0,0,1,75,29.27a2.17,2.17,0,0,1,1.48-.9h0a1.11,1.11,0,0,1,.86.41,1,1,0,0,0,1.43,0,1.15,1.15,0,0,0,0-1.53"/></g></g></g></svg>