<?xml version="1.0" encoding="utf-8"?>
<!-- Generator: Adobe Illustrator 19.1.0, SVG Export Plug-In . SVG Version: 6.00 Build 0)  -->
<svg version="1.1" id="Ebene_1" xmlns="http://www.w3.org/2000/svg" xmlns:xlink="http://www.w3.org/1999/xlink" x="0px" y="0px"
	 viewBox="0 0 181.4 77.8" style="enable-background:new 0 0 181.4 77.8;" xml:space="preserve">
<style type="text/css">
	.st0{fill:#FFFFFF;}
</style>
<g>
	<path class="st0" d="M117.9,50.5c-0.1,0-0.1,0-0.2,0c-2.1,0.1-4.1,1-5.3,2.6c-0.1-0.3-0.3-0.6-0.4-0.9c-0.9-1.4-2.7-2.5-4.2-2.6
		c-0.1,0-0.1,0-0.2,0c-2.8,0-4.6,1.2-6,2.2l0,0c-0.8-1-2-1.8-2.7-2.1c-0.6-0.2-1.2-0.3-1.8-0.3c-2.1,0-4.4,1.3-6.4,3.5
		c-0.2,0.2-0.6,0.8-0.5,1.7c0,0-0.1,0-0.1,0c-0.5,0-0.9,0.3-1.2,0.8c-1,1.6-1.8,3.3-2.4,5.2c-1.1,3.4-1.5,6.9-1.1,9.9
		c0,0.3,0.1,0.5,0.1,0.8c-1.2,0.6-3.2,1.4-4.7,1.4c-0.6,0-1-0.1-1.2-0.3c-0.8-0.7-1-3.5,0.9-9.2l0,0c2-5.9,4.2-12.7,6.5-20.2
		c1.6,0.3,7.2,1.4,14.1,1.4c7.6,0,14.2-1.3,19.4-3.9c0.5-0.3,0.9-0.7,1.1-1.3c0.2-0.6,0.2-1.2-0.1-1.7c-0.4-0.8-1.1-1.3-2-1.3
		c-0.3,0-0.6,0.1-0.9,0.2c-4.7,2.3-10.5,3.4-17.5,3.4c-6,0-11-0.9-12.9-1.2c0.5-1.5,0.9-3.1,1.4-4.7c1.3-4.4,2.1-7.2,2.1-7.2
		c0.2-0.7-0.3-1.4-0.8-1.8c-0.5-0.5-1.3-0.9-1.9-1.1c-0.2-0.1-0.4-0.1-0.6-0.1c-1,0-1.9,0.7-2.2,1.7c0,0-0.9,3.2-2.4,8.4
		c-0.3,1-0.6,2.2-1,3.6c-11.3-2.4-21.3-3.7-29.8-3.7c-16.3,0-21.6,4.6-21.9,4.8c-0.9,0.8-1,2.3-0.2,3.2c0.4,0.5,1,0.8,1.7,0.8
		c0.5,0,1-0.2,1.4-0.6c0,0,1.2-0.9,4.2-1.9c2.7-0.8,7.4-1.8,14.8-1.8c8.1,0,17.8,1.2,28.6,3.5l-0.4,1.4c-1.7,6.7-3.7,14.3-6.2,21.3
		c-2.3,6.5-4.2,8.2-4.9,8.2c-0.2,0-0.4-0.2-0.7-0.5c-0.9-1.2-1.6-3.9-1.2-5.3c0.2-0.4,0.3-0.9,0.4-1.3c0.3-0.8,0.5-1.6,0.7-2.4l0,0
		c1.1-3.8,2.7-9.9,3.2-11.6l0-0.1c0.2-0.6,0.1-1.2-0.2-1.8c-0.3-0.5-0.8-0.9-1.4-1.1c-0.2-0.1-0.4-0.1-0.6-0.1c-1,0-1.9,0.7-2.2,1.7
		l-0.1,0.3c-0.8-1.1-1.8-1.9-3-2.3c-0.6-0.2-1.2-0.3-1.9-0.3c-4.3,0-8.9,4.9-11.2,11.9c-0.1,0.5-0.3,0.9-0.4,1.5c0,0-0.1,0-0.1-0.1
		c-0.4-0.2-0.8-0.3-1.2-0.3c-0.8,0-1.5,0.4-2,1.1c-0.1,0.2-0.2,0.4-0.2,0.6l0,0.1c-0.1,0.5-0.2,0.9-0.4,1.2c-1.8,5.5-4.3,9-6.3,9
		c-0.2,0-0.3,0-0.4-0.1c-0.8-0.3-1.5-1.6-1.8-3.4c-0.4-2.4,0-5.5,1-8.4c1.8-5.6,5.1-9,7.2-9c0.1,0,0.7,0.2,0.8,1.2
		c0,0.4,0.3,1.6,0.3,1.6c0.2,0.8,1.1,1.5,2.1,1.5c1.2,0,2.2-1,2.3-2.3c0,0,0-0.1,0-0.1l0-0.1c-0.6-3.4-2-5.3-4.5-6.2
		c-0.6-0.2-1.2-0.3-1.9-0.3c-3.8,0-7.7,3.5-10.3,9.2c0-0.7-0.1-1.4-0.2-2.1c-0.6-3.7-2.3-6.3-4.8-7.2c-0.6-0.2-1.2-0.3-1.9-0.3
		c-1.7,0-3.6,0.8-5.3,2.2c0,0-0.4,0.3-0.8,0.3c-0.2,0-0.4-0.1-0.6-0.3c-0.2-0.2-0.3-0.2-0.5-0.2c-0.2,0-0.4,0.1-0.6,0.3
		c-0.6,0.7-1.2,2.4-1.1,4c-1.1,1.8-2.1,3.8-2.8,6c-1.2,3.7-1.6,7.6-1.2,10.8c0,0.3,0.1,0.7,0.2,1c-0.1,0-0.1,0.1-0.2,0.1
		c0,0-2.6,1.4-5.2,1.4c-0.8,0-1.5-0.1-2.1-0.4c-1.5-0.6-2.6-2.1-3.3-4.5c-0.5-1.6-0.6-4-0.4-7c14-12.3,18-22.8,18.7-24.8
		c1.2-3.7,1.6-7.6,1.2-10.8c-0.6-3.7-2.3-6.3-4.8-7.2c-0.6-0.2-1.3-0.3-1.9-0.3c-4.5,0-9.1,4.9-11.5,12.3c0,0.1-4.4,13.6-5.9,28.4
		l-0.5,0.3c-0.5,0.4-0.8,0.9-0.8,1.6c-0.1,0.6,0.1,1.2,0.5,1.7c0.1,0.1,0.3,0.1,0.6,0c-0.1,2.9,0.1,5.3,0.6,7.1
		c1.1,3.8,3.1,6.3,6,7.5c1.2,0.5,2.4,0.7,3.8,0.7c3.5,0,6.6-1.6,7.3-2c0.8,0.9,1.7,1.6,2.7,1.9c0.6,0.2,1.3,0.3,1.9,0.3
		c3.8,0,7.9-3.7,10.4-9.4c0,0.7,0.1,1.4,0.2,2c0.6,3.7,2.3,6.2,4.8,7.1c0.6,0.2,1.2,0.3,1.9,0.3c3.7,0,7.6-3.4,10.2-8.9
		c0,0.5,0.1,1.1,0.2,1.5c0.5,3.6,2.2,6.1,4.7,6.9c0.6,0.2,1.2,0.3,1.9,0.3c2.4,0,4.9-1.5,7.1-4.2c0.9,1.5,2.8,4,5.6,4l0.1,0
		c1.8,0,3.5-1,5-3.1c0.3,0.6,0.8,1.2,1.3,1.6c1.1,0.9,2.5,1.4,4.2,1.4c2.7,0,5.6-1.3,6.7-1.8c0.7,0.7,1.4,1.2,2.3,1.6
		c0.6,0.2,1.2,0.3,1.8,0.3c4.1,0,8.4-4.6,10.6-11.3c1.1-3.4,1.5-6.9,1.1-9.9c0-0.3-0.1-0.7-0.2-1c0-0.1,0-0.1,0-0.2
		c0,0,0.1,0,0.1-0.1c0.4-0.2,1.4-0.9,2.8-0.9c0.5,0,1.1,0.1,1.6,0.3c0.5,0.2,1,1.1-0.9,9.5c-0.9,4.1-3.1,9.5-3.3,10.1
		c-0.5,1.3,0,2.7,1.1,3.2l0.1,0c0.2,0.1,0.2,0.1,0.4,0.1l0.1,0c0.1,0,0.2,0,0.3,0c0.9,0,1.9-0.7,2.2-1.5c0.6-1.5,1.6-4.6,2.5-7.8
		l0-0.1c2.1-7,4.2-10.6,4.3-10.6c0.8-1.3,2.6-2,3.3-2h0.1c0.7,0,1.3,0.3,1.9,0.9c0.4,0.5,1,0.7,1.6,0.7c0.6,0,1.2-0.3,1.6-0.7
		c0.9-1,0.9-2.5,0-3.4C121.6,51.4,119.8,50.5,117.9,50.5z M11.6,35.1c0.4-1.2,0.8-2.3,1.2-3.4c1.2-3.7,4.3-9.1,7.3-9.1
		c0.2,0,0.3,0,0.4,0.1c0.8,0.3,1.1,1.5,1.4,3.4c0.3,2.1-0.6,4.8-1.5,7.3c-0.1,0.4-0.3,0.8-0.4,1.2c-0.1,0.3-2.7,7.8-13.5,19.1
		C8,45.5,9.9,39.9,11.6,35.1z M30.7,64c-1.8,5.4-4.4,9.1-6.5,9.1c-0.1,0-0.1,0-0.3-0.1l-0.1,0c-0.8-0.3-1.5-1.6-1.8-3.5
		c-0.4-2.4,0-5.5,1-8.5c0.2-0.6,0.4-1.2,0.7-1.8l0.2-0.3l-0.1,0c0.9-2.3,1-3,1-3.3h0c0.7,0,1.1-0.4,1.2-0.5l0,0
		c1.5-2,3.1-3.2,4.3-3.2c0.1,0,0.1,0,0.3,0.1l0.1,0c0.6,0.2,0.7,1.1,0.9,2.5l0,0c0,0.3,0.1,0.6,0.1,1C32,57.9,31.7,61,30.7,64z
		 M64.6,64.3c-1.7,5.3-4.2,8.8-6.3,8.8c-0.2,0-0.3,0-0.4-0.1c-0.8-0.3-1.5-1.6-1.7-3.3c-0.4-2.3,0-5.4,0.9-8.3c1.8-5.4,5-8.8,7-8.8
		c0.2,0,0.3,0,0.4,0.1C66.3,53.3,66.7,58.1,64.6,64.3z M98.3,64.9c-1.6,5-4,8.3-5.9,8.3c-0.1,0-0.3,0-0.4-0.1
		c-0.8-0.3-1.4-1.5-1.6-3.1c-0.3-2.2,0-5.1,0.9-7.8c0.3-0.9,0.7-1.9,1.1-2.7c0.2,0.1,0.5,0.2,0.7,0.2c0.3,0,0.6-0.1,0.8-0.3
		c0.1-0.2,0.2-0.4,0.1-0.5c-0.2-1.6,0.8-3,1-3.2c1-1.1,2.1-1.7,2.9-1.7c0.1,0,0.3,0,0.4,0.1c0.7,0.2,0.9,1.4,0.9,3.1
		C99.2,59.2,99.2,62.1,98.3,64.9z"/>
	<path class="st0" d="M181.2,18.3c-1.9-11.9-13.1-19.9-25-18c-11.9,1.9-19.9,13.1-18,25c1.9,11.9,13.1,19.9,25,18
		S183.1,30.1,181.2,18.3z M162.8,41.5c-10.9,1.8-21.2-5.6-23-16.5c-1.8-10.9,5.6-21.2,16.5-23c10.9-1.8,21.2,5.6,23,16.5
		C181.1,29.5,173.7,39.7,162.8,41.5z"/>
	<path class="st0" d="M162.3,8.8c-0.6,0.2-1.1,1.1-1.1,1.9c0,0.8,0.5,1.3,1.2,1.1c0.6-0.2,1.1-1.1,1.1-1.9
		C163.5,9,163,8.5,162.3,8.8z"/>
	<path class="st0" d="M165.7,10.5c0.6-0.2,1.1-1.1,1.1-1.9c0-0.8-0.6-1.3-1.2-1.1c-0.6,0.2-1.1,1.1-1.1,1.9
		C164.6,10.3,165.1,10.8,165.7,10.5z"/>
	<path class="st0" d="M173.4,12.9c0.1-1,0.2-1.4,0.3-2c0.2-1.9-0.6-2.1-1.4-1.8c-0.5,0.2-1.9,1.2-3,4.9l0.5-3.9l-1.7,0.6l-0.3,2.1
		c-0.4,0.8-1,1.6-1.6,1.7c0-0.5-0.1-0.9-0.2-1.2c-0.2-0.8-0.6-1.6-1.2-1.4c-0.3,0.1-0.5,0.4-0.7,0.7c-0.1-0.2-0.3-0.5-0.5-0.4
		c-0.9,0.3-2,1.5-2.6,3.9c-0.5,1.1-1.1,2.2-1.2,2.4c-0.2,0.3-0.3,0.7-0.5,0.6c-0.1-0.1-0.1-0.8,0-1.1c0.1-1,0.2-1.6,0.3-2.2
		c0.2-1.6-0.6-1.9-1.5-1.6c-0.5,0.2-1.9,1.2-3,4.9l1.1-8.1l-1.7,0.6l-1.1,8c-0.8,2.1-1.8,3.8-3.1,4.2c-1.3,0.5-1.9-0.5-1.6-2.3
		c0.2-1.4,0.9-2.7,1.5-3s0.4,1.3,0,2.1c0,0,1.3,0.7,1.6-0.2c0.7-2.5-0.7-3.6-2.3-3c-1,0.4-2.1,1.8-2.6,4.1c-0.1,0.3-0.1,0.5-0.1,0.8
		c-0.3,0.4-0.6,0.7-0.9,1c0-0.3-0.1-0.5-0.1-0.8c-0.1-0.9-0.4-2.3-0.4-2.3s1.3-2.4-0.5-1.6c-1.8,0.8-1.2,3-0.8,4.8
		c0.1,0.5,0.2,1,0.2,1.3c-1.2,0.9-2.4,1.6-2.3,2.4c0.2,1,1.2,0.9,1.9,0.6c1.1-0.4,2.1-1.2,2.1-3.3c0.3-0.3,0.5-0.6,0.8-1
		c0.2,1.8,1.6,2.6,3.4,1.9c1.1-0.4,2-1.4,2.7-2.7l-0.2,1.7l1.7-0.6c0.4-3.1,2.3-6.9,2.9-7.1c0.4-0.1,0.4,0.4,0.3,1.4
		c-0.1,1.1-0.2,1.8-0.4,2.8c-0.2,1.3,0.3,1.7,1,1.5c0.4-0.2,0.9-0.7,1.5-1.9c0.2-0.4,0.5-1.1,0.9-1.9c0.2,1.7,1.3,2.4,2.4,2
		c1.2-0.4,2.1-1.8,2.6-4c0.1-0.3,0.1-0.5,0.1-0.7c0.5-0.1,1-0.5,1.4-1.1l-0.6,4.4l1.7-0.6c0.4-3.1,2.3-6.9,2.9-7.1
		c0.4-0.1,0.4,0.4,0.3,1.4c-0.2,1.1-0.2,1.8-0.4,2.8c-0.2,1.3,0.3,1.7,1,1.5c0.4-0.2,0.9-0.6,1.5-1.9
		C173.4,15.3,173.2,14.8,173.4,12.9z M144.2,26.7c-0.1,0.5-0.6,0.8-0.7,0.3c0-0.2,0.4-0.6,0.9-1C144.3,26.2,144.2,26.4,144.2,26.7z
		 M163.4,18.6c-0.6,0.2-0.8-0.8-0.5-2.2c0.2-1.1,0.6-2.1,1-2.6c0,0.6,0.3,1.3,0.8,1.8C164.5,16.8,164.1,18.3,163.4,18.6z"/>
	<path class="st0" d="M155.7,30.4c0.4-0.1,0.4,0.4,0.3,1.4c-0.1,1.1-0.2,1.8-0.4,2.8c-0.2,1.3,0.3,1.7,1,1.5
		c0.4-0.2,0.9-0.7,1.5-1.9c0.3-0.5,0.9-1.9,1.5-3.2c-0.1,1-0.3,1.9-0.3,2.2c-0.2,1.3,0.3,1.7,1,1.5c0.5-0.2,0.9-0.6,1.5-1.9
		c0.2-0.4,0.6-1.2,1-2.2c0.2,1.7,1.5,2.5,3.4,1.8c2.5-0.9,3.9-4.8,4.6-7.8c0.3,0.1,0.5,0.3,0.4,0.9c-0.2,1.1-0.6,2.5-0.8,3.5
		c-0.2,1.3,0.3,1.7,1,1.5c0.4-0.2,0.9-0.7,1.5-1.9c-0.5-0.1-0.6-0.5-0.3-2.4c0.1-1,0.2-1.1,0.3-1.7c0.2-1.6-0.9-0.7-1.9-0.8
		c-0.1,0-0.2,0-0.2-0.1c0,0,0-0.1-0.1-0.1c0.4-0.9,0.6-1.8-0.1-1.9c-0.7-0.1-1.6,0.1-2,1.1c-0.4,1.3,0.7,1.9,1.4,2
		c-0.9,3.1-2.2,5.8-3.8,6.4c-0.9,0.3-1.5-0.1-1.6-1c0.2,0.1,0.4,0.1,0.7,0.1c1-0.1,1.9-1,2.4-2.5c0.8-2.5-0.7-3.6-2.3-3
		c-0.9,0.3-2,1.6-2.5,3.7c-0.6,1.2-1.2,2.4-1.3,2.6c-0.2,0.3-0.4,0.7-0.5,0.6c-0.1-0.1-0.1-0.8,0-1.1c0.1-1,0.6-4.5,0.6-4.5
		l-1.7,0.7c0,0-0.1,0.8-0.2,1.8c-0.7,1.5-1.7,3.6-1.9,3.9c-0.2,0.3-0.3,0.7-0.5,0.6c-0.1-0.1-0.1-0.8,0-1.1c0.1-1,0.2-1.6,0.3-2.2
		c0.2-1.6-0.6-1.9-1.5-1.6c-0.5,0.2-1.9,1.2-3,4.9l1.1-8.1l-1.7,0.6l-1.7,12.7l1.7-0.6C153.2,34.4,155.1,30.6,155.7,30.4z
		 M166.3,25.7c0.5-0.2,0.4,1.3,0,2.1c-0.3,0.6-0.8,1.2-1.5,1c0-0.1,0-0.1,0-0.2C165.1,27.2,165.8,25.9,166.3,25.7z"/>
	<path class="st0" d="M161.2,24.6c0.7-0.2,1.2-1.1,1.3-1.8c0-0.8-0.4-1.2-1.1-0.9c-0.7,0.2-1.2,1.1-1.3,1.8
		C160,24.5,160.5,24.9,161.2,24.6z"/>
	<path class="st0" d="M143.6,17.6c0,0,0.1,0,0.1,0c0.1,0,0.2-0.1,0.2-0.2c1.7-6.2,6.9-10.9,13.2-11.9c2.6-0.4,5.2-0.2,7.6,0.6
		c0.1,0,0.3,0,0.3-0.2c0-0.1,0-0.3-0.2-0.3c-2.5-0.8-5.2-1-7.8-0.6c-6.5,1.1-11.9,5.9-13.6,12.3C143.4,17.4,143.5,17.5,143.6,17.6z"
		/>
	<path class="st0" d="M175.8,16.2c0-0.1-0.2-0.2-0.3-0.1c-0.1,0-0.2,0.2-0.1,0.3c0.3,0.9,0.5,1.8,0.7,2.7c0.4,2.7,0.2,5.5-0.7,8.1
		c0,0.1,0,0.3,0.1,0.3c0,0,0.1,0,0.1,0c0.1,0,0.2-0.1,0.2-0.2c0.9-2.6,1.2-5.5,0.7-8.3C176.4,18.1,176.1,17.1,175.8,16.2z"/>
	<path class="st0" d="M145.2,29.4c-0.1-0.1-0.2-0.2-0.3-0.1c-0.1,0.1-0.2,0.2-0.1,0.3c1.1,2.2,2.8,4.1,4.7,5.6c0.1,0,0.1,0.1,0.2,0
		c0.1,0,0.1,0,0.2-0.1c0.1-0.1,0.1-0.3,0-0.3C147.9,33.4,146.3,31.5,145.2,29.4z"/>
	<path class="st0" d="M162.4,38c-2.1,0.3-4.2,0.3-6.2-0.2c0,0,0,0,0,0c-0.3-0.1-0.7-0.2-1-0.3c-0.1,0-0.2-0.1-0.3-0.1l-0.1,0
		c-0.1,0-0.3,0-0.3,0.2c0,0.1,0,0.3,0.2,0.3l0.1,0c0.1,0,0.2,0.1,0.3,0.1c0.3,0.1,0.7,0.2,1,0.3c0,0,0,0,0,0v0
		c2.1,0.5,4.3,0.5,6.4,0.2c4.3-0.7,8.2-3,10.8-6.6l-0.4-0.3C170.4,35,166.7,37.3,162.4,38z"/>
</g>
</svg>
