<?xml version="1.0" encoding="utf-8"?>
<!-- Generator: Adobe Illustrator 18.0.0, SVG Export Plug-In . SVG Version: 6.00 Build 0)  -->
<!DOCTYPE svg PUBLIC "-//W3C//DTD SVG 1.1//EN" "http://www.w3.org/Graphics/SVG/1.1/DTD/svg11.dtd">
<svg version="1.1" id="Ebene_1" xmlns="http://www.w3.org/2000/svg" xmlns:xlink="http://www.w3.org/1999/xlink" x="0px" y="0px"
	 viewBox="0 0 200 200" style="enable-background:new 0 0 200 200;" xml:space="preserve">
<style type="text/css">
	.st0{fill:#FFFFFF;}
	.st1{fill:none;}
</style>
<path class="st0" d="M100,111.6c13.3,0,24.5-4.5,25.2-10.5c-2-5.6-4.1-11.6-6.3-17.6c-1.5,4.3-9.6,7.3-18.9,7.3
	c-9.3,0-17.4-3-18.9-7.3c-2.1,6-4.3,12-6.3,17.6C75.5,107.1,86.7,111.6,100,111.6z M100,74.2c6.3,0,12.1-1.9,13.8-5
	c-2.4-6.6-4.4-12.3-5.6-15.8c-0.8-2.4-4.7-3.6-8.2-3.6c-3.5,0-7.3,1.2-8.2,3.6c-1.3,3.6-3.3,9.2-5.6,15.8
	C87.9,72.2,93.7,74.2,100,74.2z M149,117.1l-21-8.4l2.4,6.7c-0.1,7.1-14,12.8-30.5,12.8c-16.5,0-30.3-5.7-30.5-12.8l2.4-6.7l-21,8.4
	c-5.9,2.4-6.1,6.8-0.5,9.7L89.9,148c5.6,3,14.7,3,20.3,0l39.4-21.1C155.1,123.9,154.9,119.5,149,117.1z"/>
<path class="st1" d="M100,0C44.8,0,0,44.8,0,100s44.8,100,100,100s100-44.8,100-100S155.2,0,100,0L100,0z"/>
</svg>
