<?xml version="1.0" encoding="utf-8"?>
<!-- Generator: Adobe Illustrator 18.0.0, SVG Export Plug-In . SVG Version: 6.00 Build 0)  -->
<!DOCTYPE svg PUBLIC "-//W3C//DTD SVG 1.1//EN" "http://www.w3.org/Graphics/SVG/1.1/DTD/svg11.dtd">
<svg version="1.1" id="Ebene_1" xmlns="http://www.w3.org/2000/svg" xmlns:xlink="http://www.w3.org/1999/xlink" x="0px" y="0px"
	 viewBox="0 0 200 200" style="enable-background:new 0 0 200 200;" xml:space="preserve">
<style type="text/css">
	.st0{fill:#FFFFFF;}
	.st1{fill:none;}
</style>
<path class="st0" d="M143.5,109.5l-8.6-7.7c-2.5-2.2-2.5-5.9,0-8.1l8.6-7.7c2.5-2.2,1.8-4.3-1.5-4.6l-11.4-1.1
	c-3.3-0.3-5.1-3.2-4-6.3l6.1-16.9c1.1-3.2-0.3-4.3-3.1-2.6L116,62.8c-2.8,1.8-6.5,0.8-8.2-2.1L103,52c-1.6-2.9-4.4-2.9-6,0l-4.5,7.9
	c-1.7,2.9-5.5,4.2-8.6,2.8l-8-3.7c-3-1.4-5.4,0.2-5.2,3.6l0.4,8.1c0.2,3.4-2.3,6.8-5.5,7.7l-7.7,2.1c-3.2,0.9-3.8,3.4-1.3,5.6
	l8.6,7.7c2.5,2.2,2.5,5.9,0,8.1l-8.6,7.7c-2.5,2.2-1.8,4.4,1.5,4.8l10.5,1.3c3.3,0.4,5.1,3.4,4.1,6.6l-5.4,16.3
	c-1.1,3.2,0.4,4.4,3.3,2.8l12.3-7.1c2.9-1.7,6.8-0.8,8.6,2l5.1,7.7c1.9,2.8,4.7,2.6,6.2-0.3l4.5-8.7c1.5-3,5.3-4.2,8.2-2.7l8.7,4.3
	c3,1.5,5.3,0,5.1-3.4l-0.4-8.1c-0.2-3.4,2.3-6.8,5.5-7.7l7.7-2.1C145.4,114.2,146,111.7,143.5,109.5z M105,118.7H95v-10.5h10V118.7z
	 M105,102.7H95v-26h10V102.7z"/>
<path class="st1" d="M100,0C44.8,0,0,44.8,0,100s44.8,100,100,100s100-44.8,100-100S155.2,0,100,0L100,0z"/>
</svg>
