<?xml version="1.0" encoding="utf-8"?>
<!-- Generator: Adobe Illustrator 18.0.0, SVG Export Plug-In . SVG Version: 6.00 Build 0)  -->
<!DOCTYPE svg PUBLIC "-//W3C//DTD SVG 1.1//EN" "http://www.w3.org/Graphics/SVG/1.1/DTD/svg11.dtd">
<svg version="1.1" id="Ebene_1" xmlns="http://www.w3.org/2000/svg" xmlns:xlink="http://www.w3.org/1999/xlink" x="0px" y="0px"
	 viewBox="0 0 200 200" style="enable-background:new 0 0 200 200;" xml:space="preserve">
<style type="text/css">
	.st0{fill:#FFFFFF;}
	.st1{fill:none;}
</style>
<g>
	<path class="st0" d="M62.6,80.2l11.1,2.4c0.3,0.1,0.5,0.1,0.7,0.1c1.6,0,3.1-1.1,3.4-2.8c0.4-1.9-0.8-3.8-2.7-4.2l-11.1-2.4
		c-1.9-0.4-3.8,0.8-4.2,2.7C59.5,77.9,60.7,79.8,62.6,80.2z"/>
	<path class="st0" d="M97.6,63c0.2,1.8,1.7,3.1,3.5,3.1c0.1,0,0.3,0,0.4,0c1.9-0.2,3.3-2,3.1-3.9l-1.4-11.3c-0.2-1.9-2-3.3-3.9-3.1
		c-1.9,0.2-3.3,2-3.1,3.9L97.6,63z"/>
	<path class="st0" d="M82.4,68.4c0.7,0.7,1.6,1.1,2.6,1.1c0.9,0,1.7-0.3,2.4-1c1.4-1.3,1.5-3.5,0.1-5L68.9,43.8
		c-1.3-1.4-3.5-1.5-5-0.1c-1.4,1.3-1.5,3.5-0.1,5L82.4,68.4z"/>
	<path class="st0" d="M154.9,84.9l-8.7-15c-0.5-0.8-1.3-1.4-2.2-1.6l-9.6-2.4l-9.9-2.7c-0.8-0.2-1.7-0.1-2.5,0.3L99.4,75l-0.1,0
		l0,0.1L71.7,89.1c-2,0.9-4,2-5.9,3.3c-1.2,0.8-2.3,1.7-3.3,2.6c-6.3,5.7-9.9,13.9-9.9,22.4c0,17,12.3,30.7,30.1,33.3l17.5,1.9
		c0.1,0,0.3,0,0.4,0c0.2,0,0.4,0,0.6,0c0.1,0,0.3,0,0.4,0c0.2,0,0.5,0,0.7-0.1c18.1-0.7,30.6-12.9,30.6-30.1c0-3.9-0.7-7.7-2.2-11.3
		l23.6-22.1C155.4,88.1,155.7,86.3,154.9,84.9z M124,70.4l8.7,2.3l2.6,0.7l-12.2,6.3l-12.6-2.5L124,70.4z M108.7,87.2l-12.5-2.6
		l4.2-2.1l12.7,2.5L108.7,87.2z M59.6,117.5c0-6.5,2.8-12.8,7.6-17.2c0.8-0.7,1.7-1.4,2.5-2c1.6-1.1,3.2-2,4.8-2.7
		c0.1,0,0.1-0.1,0.2-0.1l11.5-5.9l12.7,2.7l-7.4,3.8c-1.9,0.8-3.8,1.8-5.5,2.9c-1.1,0.7-2.1,1.6-3,2.4c-5.8,5.3-9.2,12.9-9.2,20.8
		c0,8.5,3.2,15.9,8.6,21.4C68.9,141.1,59.6,130.5,59.6,117.5z"/>
</g>
<path class="st1" d="M100,0C44.8,0,0,44.8,0,100s44.8,100,100,100s100-44.8,100-100S155.2,0,100,0L100,0z"/>
</svg>
