<?xml version="1.0" encoding="utf-8"?>
<!-- Generator: Adobe Illustrator 18.0.0, SVG Export Plug-In . SVG Version: 6.00 Build 0)  -->
<!DOCTYPE svg PUBLIC "-//W3C//DTD SVG 1.1//EN" "http://www.w3.org/Graphics/SVG/1.1/DTD/svg11.dtd">
<svg version="1.1" id="Ebene_1" xmlns="http://www.w3.org/2000/svg" xmlns:xlink="http://www.w3.org/1999/xlink" x="0px" y="0px"
	 viewBox="0 0 200 200" style="enable-background:new 0 0 200 200;" xml:space="preserve">
<style type="text/css">
	.st0{fill:#FFFFFF;}
	.st1{fill:none;}
</style>
<g>
	<g>
		<path class="st0" d="M109.1,93.3c-2.4-2.4-6.5-5.8-11.2-9.4L85,96.8c3.7,4.5,7.2,8.5,9.6,10.8c3.3,3.2,5.5,4.7,7.2,5.8l13.2-13.2
			C113.9,98.6,112.4,96.5,109.1,93.3z M80.2,101.6l-16.8,16.8l-9,25.8l25.8-9L97,118.3c-1.7-1.1-4-2.8-7.1-5.8
			C87.3,110,83.8,106.1,80.2,101.6z M79.1,132.4l-8.8,3.1c-0.6-1.4-1.4-2.8-2.9-4.3c-1.5-1.5-2.9-2.3-4.3-2.9l3.1-8.8l2.8-2.8
			c0,0,4.6-0.6,9.1,3.8c4.4,4.4,3.8,9.1,3.8,9.1L79.1,132.4z M140.9,57.6c-6.4-6.4-12.3-4.4-12.3-4.4L102.8,79
			c4.6,3.6,8.6,7,11.1,9.4c3.1,3,4.8,5.2,6,6.9l25.5-25.4C145.4,69.9,147.4,64.1,140.9,57.6z"/>
	</g>
	<path class="st0" d="M116.8,115.8c-4.8,4.8-6.1,11.2-1.6,15.7c10.6,10.5,32.1,11.9,27.9,7.2c-9.3-10.5-3.4-17.5-10.4-24.4
		C128.2,109.8,121.6,111.1,116.8,115.8z M95.8,108.8c5.9,5.8,9,7.7,11.4,9.5c1,0.8,1.3-0.2,1.6-0.7c1.2-2.3,2.3-3.9,4.4-6
		c2.1-2.1,3.7-3.2,6.1-4.4c0.5-0.2,1.5-0.5,0.7-1.6c-1.8-2.3-3.8-5.4-9.6-11.2C98.5,82.9,58.7,51,55.1,54.6
		C51.5,58.1,84,97.2,95.8,108.8z"/>
</g>
<path class="st1" d="M100,0C44.8,0,0,44.8,0,100s44.8,100,100,100s100-44.8,100-100S155.2,0,100,0L100,0z"/>
</svg>
