<?xml version="1.0" encoding="utf-8"?>
<!-- Generator: Adobe Illustrator 18.0.0, SVG Export Plug-In . SVG Version: 6.00 Build 0)  -->
<!DOCTYPE svg PUBLIC "-//W3C//DTD SVG 1.1//EN" "http://www.w3.org/Graphics/SVG/1.1/DTD/svg11.dtd">
<svg version="1.1" id="Ebene_1" xmlns="http://www.w3.org/2000/svg" xmlns:xlink="http://www.w3.org/1999/xlink" x="0px" y="0px"
	 viewBox="0 0 200 200" style="enable-background:new 0 0 200 200;" xml:space="preserve">
<style type="text/css">
	.st0{fill:#FFFFFF;}
	.st1{fill:none;}
</style>
<path class="st0" d="M110.7,120.3c0,0,44.1-31.8,39.2-68.3c-0.1-0.8-0.4-1.3-0.7-1.7c-0.3-0.3-0.9-0.6-1.6-0.7
	c-35.6-5-66.7,40.1-66.7,40.1c-27-3.2-25,2.2-37.3,31.7c-2.4,5.6,1.5,7.6,5.7,6c4.2-1.6,13.4-5.1,13.4-5.1L78.8,139
	c0,0-3.4,9.5-5,13.7c-1.5,4.3,0.3,8.2,5.9,5.8C108.6,145.9,113.9,147.9,110.7,120.3z M117,83.3c-3.7-3.8-3.7-10,0-13.8
	c3.7-3.8,9.8-3.8,13.5,0c3.7,3.8,3.7,10,0,13.8C126.8,87.2,120.8,87.2,117,83.3z"/>
<path class="st1" d="M100,0C44.8,0,0,44.8,0,100s44.8,100,100,100s100-44.8,100-100S155.2,0,100,0L100,0z"/>
</svg>
