<?xml version="1.0" encoding="utf-8"?>
<!-- Generator: Adobe Illustrator 18.0.0, SVG Export Plug-In . SVG Version: 6.00 Build 0)  -->
<!DOCTYPE svg PUBLIC "-//W3C//DTD SVG 1.1//EN" "http://www.w3.org/Graphics/SVG/1.1/DTD/svg11.dtd">
<svg version="1.1" id="Ebene_1" xmlns="http://www.w3.org/2000/svg" xmlns:xlink="http://www.w3.org/1999/xlink" x="0px" y="0px"
	 viewBox="0 0 200 200" style="enable-background:new 0 0 200 200;" xml:space="preserve">
<style type="text/css">
	.st0{fill:#FFFFFF;}
	.st1{fill:none;}
</style>
<path class="st0" d="M62.7,82.1c5-3.8,9.1-1.2,14.5,5.1c0.6,0.7,1.4-0.1,1.9-0.5c0.5-0.4,7.7-6.9,8.1-7.2c0.4-0.3,0.8-0.9,0.2-1.5
	c-0.6-0.7-2.6-3.3-3.9-5c-9.6-12.5,26.2-21.1,20.7-21.2c-2.8-0.1-14-0.2-15.7,0c-6.8,0.7-15.4,7.1-19.7,10c-5.6,3.9-7.7,6.1-8.1,6.4
	c-1.6,1.4-0.3,4.6-3.1,7.1c-3.1,2.7-5,0.7-6.7,2.2c-0.9,0.8-3.3,2.6-4,3.2c-0.7,0.6-0.8,1.7-0.1,2.5c0,0,6.7,7.4,7.3,8.1
	c0.6,0.7,2.1,1.2,3,0.4c0.9-0.8,3.3-2.9,3.8-3.3C61.2,88,60.6,83.8,62.7,82.1z M93,84.9c-0.6-0.7-1.4-0.8-2.1-0.1l-7.6,6.6
	c-0.6,0.5-0.7,1.5-0.1,2.1l44,50.1c1,1.2,2.8,1.3,4,0.3l5.1-4.3c1.2-1,1.3-2.8,0.3-4L93,84.9z M151.7,63.5c-0.4-2.6-1.8-2.1-2.5-1
	c-0.7,1.1-3.8,5.8-5.1,8c-1.3,2.1-4.4,6.3-10.3,2.2c-6.1-4.3-4-7.3-2.9-9.3c1.1-2,4.3-7.7,4.8-8.4c0.5-0.7-0.1-2.8-2-1.9
	c-1.9,0.9-13.4,5.4-15,12c-1.6,6.7,1.4,12.6-4.5,18.5l-7.1,7.4l7.2,8.3l8.8-8.3c2.1-2.1,6.6-4.1,10.6-3.2c8.7,2,13.4-1.3,16.2-6.7
	C152.5,76.3,152.1,66.2,151.7,63.5z M60.6,136c-1.1,1.1-1.1,2.9,0,4l5,4.9c1.1,1.1,2.9,0.6,4-0.5l26-25.6l-8-9.1L60.6,136z"/>
<path class="st1" d="M100,0C44.8,0,0,44.8,0,100s44.8,100,100,100s100-44.8,100-100S155.2,0,100,0L100,0z"/>
</svg>
